<svg width="92" height="84" viewBox="0 0 92 84" fill="none" xmlns="http://www.w3.org/2000/svg">
<path d="M83.5001 29.3334H57.2084L61.1667 10.2917L61.2917 8.95835C61.2917 7.25002 60.5834 5.66669 59.4584 4.54169L55.0417 0.166687L27.6251 27.625C26.0834 29.125 25.1667 31.2084 25.1667 33.5V75.1667C25.1667 79.75 28.9167 83.5 33.5001 83.5H71.0001C74.4584 83.5 77.4167 81.4167 78.6667 78.4167L91.2501 49.0417C91.6251 48.0834 91.8334 47.0834 91.8334 46V37.6667C91.8334 33.0834 88.0834 29.3334 83.5001 29.3334ZM83.5001 46L71.0001 75.1667H33.5001V33.5L51.5834 15.4167L46.9584 37.6667H83.5001V46ZM0.166748 33.5H16.8334V83.5H0.166748V33.5Z" fill="#3077C6"/>
</svg>
