<svg width="76" height="92" viewBox="0 0 76 92" fill="none" xmlns="http://www.w3.org/2000/svg">
<path d="M67.1667 54.3334V71H58.8333V54.3334H67.1667ZM17.1667 54.3334V71H13C10.7083 71 8.83333 69.125 8.83333 66.8334V54.3334H17.1667ZM38 0.166687C17.2917 0.166687 0.5 16.9584 0.5 37.6667V66.8334C0.5 73.75 6.08333 79.3334 13 79.3334H25.5V46H8.83333V37.6667C8.83333 21.5417 21.875 8.50002 38 8.50002C54.125 8.50002 67.1667 21.5417 67.1667 37.6667V46H50.5V79.3334H67.1667V83.5H38V91.8334H63C69.9167 91.8334 75.5 86.25 75.5 79.3334V37.6667C75.5 16.9584 58.7083 0.166687 38 0.166687Z" fill="#3077C6"/>
</svg>
